Coordinates
version=1
nRows=10
nColumns=40
inDegrees=yes

Units are S.I. units (second, meters, Newtons, ...)
If the header above contains a line with 'inDegrees', this indicates whether rotational values are in degrees (yes) or radians (no).

endheader
time	pelvis_tilt	pelvis_list	pelvis_rotation	pelvis_tx	pelvis_ty	pelvis_tz	hip_flexion_r	hip_adduction_r	hip_rotation_r	knee_angle_r	knee_angle_r_beta	ankle_angle_r	subtalar_angle_r	mtp_angle_r	hip_flexion_l	hip_adduction_l	hip_rotation_l	knee_angle_l	knee_angle_l_beta	ankle_angle_l	subtalar_angle_l	mtp_angle_l	lumbar_extension	lumbar_bending	lumbar_rotation	arm_flex_r	arm_add_r	arm_rot_r	elbow_flex_r	pro_sup_r	wrist_flex_r	wrist_dev_r	arm_flex_l	arm_add_l	arm_rot_l	elbow_flex_l	pro_sup_l	wrist_flex_l	wrist_dev_l
      0.00000000	     18.41259787	      5.41063739	      6.71770377	     -0.03653973	      0.97180691	     -0.31572484	      5.61255217	     -7.91255482	     -8.33293200	     27.03259295	      0.47180775	     -9.51126730	      0.00000000	      0.00000000	    -28.79129303	      6.45729184	      8.23103165	      7.80447677	      0.13621382	     -5.11324625	      0.00000000	      0.00000000	    -32.63934453	     -2.02101318	    -10.72841629	     -5.86522477	    -16.20860104	      4.23787969	     41.41962793	     80.18502635	      0.00000000	      0.00000000	     11.92715186	    -26.47119365	     26.24673078	     61.65852787	     71.66406199	      0.00000000	      0.00000000
      0.00400000	     18.16229358	      5.53436165	      6.63024269	     -0.03146692	      0.97036786	     -0.31575320	      6.27437731	     -8.07422711	     -8.66260848	     26.28109416	      0.45869162	     -9.47261109	      0.00000000	      0.00000000	    -28.92214516	      6.62695485	      8.04323438	      7.74609660	      0.13519489	     -4.92289239	      0.00000000	      0.00000000	    -32.42922719	     -2.17746889	    -10.75308222	     -5.91985579	    -16.21186931	      4.24917000	     41.37669537	     80.18066302	      0.00000000	      0.00000000	     12.08042864	    -26.57303055	     26.30335855	     61.85555408	     71.71253377	      0.00000000	      0.00000000
      0.00800000	     17.87999293	      5.67923145	      6.62079851	     -0.02633062	      0.96898501	     -0.31588389	      6.86997040	     -8.24649578	     -8.98104921	     25.34682107	      0.44238548	     -9.71726936	      0.00000000	      0.00000000	    -28.98506499	      6.78822357	      7.85633306	      7.77614091	      0.13571926	     -4.69117250	      0.00000000	      0.00000000	    -32.17037128	     -2.33165555	    -10.86005729	     -5.95848124	    -16.15667575	      4.18069720	     41.24394245	     80.16623490	      0.00000000	      0.00000000	     12.24918105	    -26.66552487	     26.30655397	     61.97107859	     71.75855914	      0.00000000	      0.00000000
      0.01200000	     17.72099859	      5.69166440	      6.74701692	     -0.02148309	      0.96791509	     -0.31576966	      7.25339616	     -8.22959663	     -9.42345565	     24.19772919	      0.42233005	    -10.41216195	      0.00000000	      0.00000000	    -29.06219235	      6.71513481	      7.73041956	      7.96330786	      0.13898594	     -4.47547617	      0.00000000	      0.00000000	    -32.07798046	     -2.30557699	    -11.07538557	     -5.79265489	    -16.00360213	      4.08172943	     40.87444367	     80.13473830	      0.00000000	      0.00000000	     12.44448786	    -26.79516565	     26.34251516	     62.05075337	     71.86222474	      0.00000000	      0.00000000
      0.01600000	     17.53203117	      5.76128279	      6.74491977	     -0.01652745	      0.96662046	     -0.31583399	      7.59589064	     -8.21981881	     -9.67189860	     22.92985058	      0.40020139	    -10.79141038	      0.00000000	      0.00000000	    -29.14530708	      6.78819689	      7.63630808	      8.11962606	      0.14171421	     -4.19412089	      0.00000000	      0.00000000	    -31.96308271	     -2.35258587	    -11.16395994	     -5.87416125	    -16.00363707	      4.00916123	     40.98485654	     80.14375935	      0.00000000	      0.00000000	     12.58477823	    -26.88868550	     26.40566110	     62.18566567	     72.22758343	      0.00000000	      0.00000000
      0.02000000	     17.26962352	      5.84988908	      6.64298034	     -0.01140218	      0.96505114	     -0.31581138	      8.27576939	     -8.31248029	    -10.05115595	     22.23330718	      0.38804441	    -10.80037264	      0.00000000	      0.00000000	    -29.20813385	      6.92957305	      7.39410241	      8.17178836	      0.14262461	     -3.98003136	      0.00000000	      0.00000000	    -31.72627174	     -2.49816010	    -11.15588013	     -5.87842833	    -16.00195647	      4.05841216	     40.86461409	     80.15459429	      0.00000000	      0.00000000	     12.75421104	    -26.97409566	     26.46435064	     62.29854011	     72.35528390	      0.00000000	      0.00000000
      0.02400000	     17.08344422	      5.90003753	      6.55240305	     -0.00672729	      0.96357617	     -0.31563847	      8.97236034	     -8.33083024	    -10.33473841	     21.71856778	      0.37906052	    -10.77902376	      0.00000000	      0.00000000	    -29.29490615	      7.00189679	      7.25949801	      8.25546832	      0.14408510	     -3.86523002	      0.00000000	      0.00000000	    -31.63412999	     -2.58331115	    -11.17906226	     -5.81131742	    -15.97261886	      4.02795903	     40.84339467	     80.15158399	      0.00000000	      0.00000000	     12.97887196	    -27.05352133	     26.42076261	     62.39760699	     72.40181974	      0.00000000	      0.00000000
      0.02800000	     16.76446620	      6.02005304	      6.46737015	     -0.00148304	      0.96199949	     -0.31555811	      9.65137352	     -8.43412470	    -10.65453224	     20.93292713	      0.36534850	    -10.90964693	      0.00000000	      0.00000000	    -29.27524874	      7.17242419	      7.07754139	      8.38736334	      0.14638711	     -3.60982064	      0.00000000	      0.00000000	    -31.34374433	     -2.76693718	    -11.18002895	     -5.84701469	    -15.92683804	      3.97038056	     40.72738070	     80.13401469	      0.00000000	      0.00000000	     13.11513946	    -27.11619344	     26.37834530	     62.51419175	     72.44312359	      0.00000000	      0.00000000
      0.03200000	     16.64189831	      5.95700421	      6.51541369	      0.00346130	      0.96085638	     -0.31518333	      9.80905433	     -8.16699698	    -10.69651067	     19.40642261	      0.33870597	    -12.10985331	      0.00000000	      0.00000000	    -29.33354811	      7.03364412	      6.93139394	      8.73995517	      0.15254099	     -2.98360838	      0.00000000	      0.00000000	    -31.27141385	     -2.70652379	    -11.28130478	     -5.67104015	    -15.72225483	      3.73961652	     40.27435340	     80.16084501	      0.00000000	      0.00000000	     13.24716291	    -27.25451136	     26.44003148	     62.49346087	     72.92844968	      0.00000000	      0.00000000
      0.03600000	     16.40828099	      6.02933073	      6.41000622	      0.00864882	      0.95927171	     -0.31496114	     10.45758647	     -8.19561321	    -10.99994014	     18.82075709	      0.32848418	    -12.06409527	      0.00000000	      0.00000000	    -29.36811930	      7.13219763	      6.71370809	      8.88850031	      0.15513360	     -2.84400026	      0.00000000	      0.00000000	    -31.06762335	     -2.83986421	    -11.27024097	     -5.69039134	    -15.69081809	      3.74281621	     40.21942013	     80.16645492	      0.00000000	      0.00000000	     13.36122610	    -27.34559110	     26.44853549	     62.59044323	     73.03237380	      0.00000000	      0.00000000
